<svg version="1.1" viewBox="0.0 0.0 285.0 310.0" fill="none" stroke="none" stroke-linecap="square" stroke-miterlimit="10" xmlns:xlink="http://www.w3.org/1999/xlink" xmlns="http://www.w3.org/2000/svg"><clipPath id="gf25e7c3f2a_2_100.0"><path d="m0 0l960.0 0l0 540.0l-960.0 0l0 -540.0z" clip-rule="nonzero"/></clipPath><g clip-path="url(#gf25e7c3f2a_2_100.0)"><path fill="#ffffff" d="m0 0l960.0 0l0 540.0l-960.0 0z" fill-rule="evenodd"/><path fill="#000000" fill-opacity="0.0" d="m39.002598 85.07535l88.85039 92.56694" fill-rule="evenodd"/><path stroke="#b7b7b7" stroke-width="2.0" stroke-linejoin="round" stroke-linecap="butt" stroke-dasharray="8.0,6.0" d="m39.002598 85.07535l88.85039 92.56694" fill-rule="evenodd"/><path fill="#000000" fill-opacity="0.0" d="m24.660023 91.01624l103.2126 178.14172" fill-rule="evenodd"/><path stroke="#b7b7b7" stroke-width="2.0" stroke-linejoin="round" stroke-linecap="butt" d="m24.660023 91.01624l103.2126 178.14172" fill-rule="evenodd"/><path fill="#000000" fill-opacity="0.0" d="m39.002598 56.3902l82.92914 -31.401575" fill-rule="evenodd"/><path stroke="#b7b7b7" stroke-width="2.0" stroke-linejoin="round" stroke-linecap="butt" d="m39.002598 56.3902l82.92914 -31.401575" fill-rule="evenodd"/><path fill="#000000" fill-opacity="0.0" d="m39.002598 223.39282l88.85039 -92.566925" fill-rule="evenodd"/><path stroke="#b7b7b7" stroke-width="2.0" stroke-linejoin="round" stroke-linecap="butt" d="m39.002598 223.39282l88.85039 -92.566925" fill-rule="evenodd"/><path fill="#000000" fill-opacity="0.0" d="m39.002598 252.07797l82.92914 31.40158" fill-rule="evenodd"/><path stroke="#b7b7b7" stroke-width="2.0" stroke-linejoin="round" stroke-linecap="butt" d="m39.002598 252.07797l82.92914 31.40158" fill-rule="evenodd"/><path fill="#000000" fill-opacity="0.0" d="m44.94349 237.7354l82.92913 -31.401566" fill-rule="evenodd"/><path stroke="#b7b7b7" stroke-width="2.0" stroke-linejoin="round" stroke-linecap="butt" d="m44.94349 237.7354l82.92913 -31.401566" fill-rule="evenodd"/><path fill="#000000" fill-opacity="0.0" d="m44.94349 70.73277l82.92913 31.40158" fill-rule="evenodd"/><path stroke="#b7b7b7" stroke-width="2.0" stroke-linejoin="round" stroke-linecap="butt" d="m44.94349 70.73277l82.92913 31.40158" fill-rule="evenodd"/><path fill="#000000" fill-opacity="0.0" d="m162.49467 24.98212l82.92912 31.401573" fill-rule="evenodd"/><path stroke="#b7b7b7" stroke-width="2.0" stroke-linejoin="round" stroke-linecap="butt" d="m162.49467 24.98212l82.92912 31.401573" fill-rule="evenodd"/><path fill="#000000" fill-opacity="0.0" d="m245.41719 85.07535l-88.8504 92.56694" fill-rule="evenodd"/><path stroke="#b7b7b7" stroke-width="2.0" stroke-linejoin="round" stroke-linecap="butt" stroke-dasharray="8.0,6.0" d="m245.41719 85.07535l-88.8504 92.56694" fill-rule="evenodd"/><path fill="#000000" fill-opacity="0.0" d="m239.4763 70.73277l-82.92914 31.40158" fill-rule="evenodd"/><path stroke="#b7b7b7" stroke-width="2.0" stroke-linejoin="round" stroke-linecap="butt" d="m239.4763 70.73277l-82.92914 31.40158" fill-rule="evenodd"/><path fill="#000000" fill-opacity="0.0" d="m259.75977 91.01624l-103.2126 178.14172" fill-rule="evenodd"/><path stroke="#b7b7b7" stroke-width="2.0" stroke-linejoin="round" stroke-linecap="butt" d="m259.75977 91.01624l-103.2126 178.14172" fill-rule="evenodd"/><path fill="#000000" fill-opacity="0.0" d="m245.41719 223.39282l-88.8504 -92.566925" fill-rule="evenodd"/><path stroke="#b7b7b7" stroke-width="2.0" stroke-linejoin="round" stroke-linecap="butt" d="m245.41719 223.39282l-88.8504 -92.566925" fill-rule="evenodd"/><path fill="#000000" fill-opacity="0.0" d="m239.4763 237.7354l-82.92914 -31.401566" fill-rule="evenodd"/><path stroke="#b7b7b7" stroke-width="2.0" stroke-linejoin="round" stroke-linecap="butt" d="m239.4763 237.7354l-82.92914 -31.401566" fill-rule="evenodd"/><path fill="#000000" fill-opacity="0.0" d="m245.41719 252.07797l-82.92914 31.40158" fill-rule="evenodd"/><path stroke="#b7b7b7" stroke-width="2.0" stroke-linejoin="round" stroke-linecap="butt" d="m245.41719 252.07797l-82.92914 31.40158" fill-rule="evenodd"/><path fill="#ffffff" d="m121.92774 116.48343l0 0c0 -11.202248 9.081215 -20.283463 20.283455 -20.283463l0 0c5.3795166 0 10.538696 2.137001 14.342575 5.9408875c3.803894 3.803894 5.9409027 8.963066 5.9409027 14.342575l0 0c0 11.202255 -9.081223 20.283463 -20.283478 20.283463l0 0c-11.20224 0 -20.283455 -9.081207 -20.283455 -20.283463z" fill-rule="evenodd"/><path stroke="#b7b7b7" stroke-width="4.0" stroke-linejoin="round" stroke-linecap="butt" d="m121.92774 116.48343l0 0c0 -11.202248 9.081215 -20.283463 20.283455 -20.283463l0 0c5.3795166 0 10.538696 2.137001 14.342575 5.9408875c3.803894 3.803894 5.9409027 8.963066 5.9409027 14.342575l0 0c0 11.202255 -9.081223 20.283463 -20.283478 20.283463l0 0c-11.20224 0 -20.283455 -9.081207 -20.283455 -20.283463z" fill-rule="evenodd"/><path fill="#ffffff" d="m121.92774 24.98212l0 0c0 -11.202249 9.081215 -20.283464 20.283455 -20.283464l0 0c5.3795166 0 10.538696 2.137002 14.342575 5.940889c3.803894 3.8038883 5.9409027 8.963067 5.9409027 14.342576l0 0c0 11.202248 -9.081223 20.283463 -20.283478 20.283463l0 0c-11.20224 0 -20.283455 -9.081215 -20.283455 -20.283463z" fill-rule="evenodd"/><path stroke="#b7b7b7" stroke-width="4.0" stroke-linejoin="round" stroke-linecap="butt" d="m121.92774 24.98212l0 0c0 -11.202249 9.081215 -20.283464 20.283455 -20.283464l0 0c5.3795166 0 10.538696 2.137002 14.342575 5.940889c3.803894 3.8038883 5.9409027 8.963067 5.9409027 14.342576l0 0c0 11.202248 -9.081223 20.283463 -20.283478 20.283463l0 0c-11.20224 0 -20.283455 -9.081215 -20.283455 -20.283463z" fill-rule="evenodd"/><path fill="#ffffff" d="m121.92774 283.48605l0 0c0 -11.20224 9.081215 -20.283447 20.283455 -20.283447l0 0c5.3795166 0 10.538696 2.1369934 14.342575 5.9408875c3.803894 3.8038635 5.9409027 8.963043 5.9409027 14.34256l0 0c0 11.20224 -9.081223 20.283478 -20.283478 20.283478l0 0c-11.20224 0 -20.283455 -9.081238 -20.283455 -20.283478z" fill-rule="evenodd"/><path stroke="#b7b7b7" stroke-width="4.0" stroke-linejoin="round" stroke-linecap="butt" d="m121.92774 283.48605l0 0c0 -11.20224 9.081215 -20.283447 20.283455 -20.283447l0 0c5.3795166 0 10.538696 2.1369934 14.342575 5.9408875c3.803894 3.8038635 5.9409027 8.963043 5.9409027 14.34256l0 0c0 11.20224 -9.081223 20.283478 -20.283478 20.283478l0 0c-11.20224 0 -20.283455 -9.081238 -20.283455 -20.283478z" fill-rule="evenodd"/><path fill="#000000" fill-opacity="0.0" d="m127.86863 39.324696l-66.14173 116.06299" fill-rule="evenodd"/><path stroke="#b7b7b7" stroke-width="2.0" stroke-linejoin="round" stroke-linecap="butt" stroke-dasharray="8.0,6.0" d="m127.86863 39.324696l-66.14173 116.06299" fill-rule="evenodd"/><path fill="#000000" fill-opacity="0.0" d="m61.699394 154.6173l-37.03937 62.83464" fill-rule="evenodd"/><path stroke="#b7b7b7" stroke-width="2.0" stroke-linejoin="round" stroke-linecap="butt" d="m61.699394 154.6173l-37.03937 62.83464" fill-rule="evenodd"/><path fill="#000000" fill-opacity="0.0" d="m156.55377 39.324696l68.25198 116.8504" fill-rule="evenodd"/><path stroke="#b7b7b7" stroke-width="2.0" stroke-linejoin="round" stroke-linecap="butt" stroke-dasharray="8.0,6.0" d="m156.55377 39.324696l68.25198 116.8504" fill-rule="evenodd"/><path fill="#000000" fill-opacity="0.0" d="m259.75977 217.45193l-35.716537 -62.83464" fill-rule="evenodd"/><path stroke="#b7b7b7" stroke-width="2.0" stroke-linejoin="round" stroke-linecap="butt" d="m259.75977 217.45193l-35.716537 -62.83464" fill-rule="evenodd"/><path fill="#ffffff" d="m4.3765583 70.73277l0 0c0 -11.202244 9.081217 -20.283463 20.283464 -20.283463l0 0c5.379509 0 10.538689 2.1370049 14.342575 5.9408913c3.8038864 3.8038864 5.9408913 8.963062 5.9408913 14.342571l0 0c0 11.202255 -9.081219 20.28347 -20.283466 20.28347l0 0c-11.202248 0 -20.283464 -9.081215 -20.283464 -20.28347z" fill-rule="evenodd"/><path stroke="#326ce5" stroke-width="4.0" stroke-linejoin="round" stroke-linecap="butt" d="m4.3765583 70.73277l0 0c0 -11.202244 9.081217 -20.283463 20.283464 -20.283463l0 0c5.379509 0 10.538689 2.1370049 14.342575 5.9408913c3.8038864 3.8038864 5.9408913 8.963062 5.9408913 14.342571l0 0c0 11.202255 -9.081219 20.28347 -20.283466 20.28347l0 0c-11.202248 0 -20.283464 -9.081215 -20.283464 -20.28347z" fill-rule="evenodd"/><path fill="#ffffff" d="m121.92774 191.98474l0 0c0 -11.20224 9.081215 -20.283463 20.283455 -20.283463l0 0c5.3795166 0 10.538696 2.1370087 14.342575 5.9408875c3.803894 3.803894 5.9409027 8.963074 5.9409027 14.342575l0 0c0 11.202255 -9.081223 20.283463 -20.283478 20.283463l0 0c-11.20224 0 -20.283455 -9.081207 -20.283455 -20.283463z" fill-rule="evenodd"/><path stroke="#326ce5" stroke-width="4.0" stroke-linejoin="round" stroke-linecap="butt" d="m121.92774 191.98474l0 0c0 -11.20224 9.081215 -20.283463 20.283455 -20.283463l0 0c5.3795166 0 10.538696 2.1370087 14.342575 5.9408875c3.803894 3.803894 5.9409027 8.963074 5.9409027 14.342575l0 0c0 11.202255 -9.081223 20.283463 -20.283478 20.283463l0 0c-11.20224 0 -20.283455 -9.081207 -20.283455 -20.283463z" fill-rule="evenodd"/><path fill="#ffffff" d="m239.4763 237.7354l0 0c0 -11.20224 9.081207 -20.283463 20.283463 -20.283463l0 0c5.3795166 0 10.538696 2.1370087 14.34256 5.9408875c3.803894 3.803894 5.9408875 8.963074 5.9408875 14.342575l0 0c0 11.202255 -9.081207 20.283463 -20.283447 20.283463l0 0c-11.202255 0 -20.283463 -9.081207 -20.283463 -20.283463z" fill-rule="evenodd"/><path stroke="#326ce5" stroke-width="4.0" stroke-linejoin="round" stroke-linecap="butt" d="m239.4763 237.7354l0 0c0 -11.20224 9.081207 -20.283463 20.283463 -20.283463l0 0c5.3795166 0 10.538696 2.1370087 14.34256 5.9408875c3.803894 3.803894 5.9408875 8.963074 5.9408875 14.342575l0 0c0 11.202255 -9.081207 20.283463 -20.283447 20.283463l0 0c-11.202255 0 -20.283463 -9.081207 -20.283463 -20.283463z" fill-rule="evenodd"/><path fill="#ffffff" d="m4.3765583 237.7354l0 0c0 -11.20224 9.081217 -20.283463 20.283464 -20.283463l0 0c5.379509 0 10.538689 2.1370087 14.342575 5.9408875c3.8038864 3.803894 5.9408913 8.963074 5.9408913 14.342575l0 0c0 11.202255 -9.081219 20.283463 -20.283466 20.283463l0 0c-11.202248 0 -20.283464 -9.081207 -20.283464 -20.283463z" fill-rule="evenodd"/><path stroke="#326ce5" stroke-width="4.0" stroke-linejoin="round" stroke-linecap="butt" d="m4.3765583 237.7354l0 0c0 -11.20224 9.081217 -20.283463 20.283464 -20.283463l0 0c5.379509 0 10.538689 2.1370087 14.342575 5.9408875c3.8038864 3.803894 5.9408913 8.963074 5.9408913 14.342575l0 0c0 11.202255 -9.081219 20.283463 -20.283466 20.283463l0 0c-11.202248 0 -20.283464 -9.081207 -20.283464 -20.283463z" fill-rule="evenodd"/><path fill="#ffffff" d="m239.4763 70.73277l0 0c0 -11.202244 9.081207 -20.283463 20.283463 -20.283463l0 0c5.3795166 0 10.538696 2.1370049 14.34256 5.9408913c3.803894 3.8038864 5.9408875 8.963062 5.9408875 14.342571l0 0c0 11.202255 -9.081207 20.28347 -20.283447 20.28347l0 0c-11.202255 0 -20.283463 -9.081215 -20.283463 -20.28347z" fill-rule="evenodd"/><path stroke="#326ce5" stroke-width="4.0" stroke-linejoin="round" stroke-linecap="butt" d="m239.4763 70.73277l0 0c0 -11.202244 9.081207 -20.283463 20.283463 -20.283463l0 0c5.3795166 0 10.538696 2.1370049 14.34256 5.9408913c3.803894 3.8038864 5.9408875 8.963062 5.9408875 14.342571l0 0c0 11.202255 -9.081207 20.28347 -20.283447 20.28347l0 0c-11.202255 0 -20.283463 -9.081215 -20.283463 -20.28347z" fill-rule="evenodd"/></g></svg>
