<svg version="1.1" viewBox="0.0 50.0 960.0 350.0" fill="none" stroke="none" stroke-linecap="square" stroke-miterlimit="10" xmlns:xlink="http://www.w3.org/1999/xlink" xmlns="http://www.w3.org/2000/svg"><clipPath id="p.0"><path d="m0 0l960.0 0l0 540.0l-960.0 0l0 -540.0z" clip-rule="nonzero"/></clipPath><g clip-path="url(#p.0)"><path fill="#ffffff" d="m0 0l960.0 0l0 540.0l-960.0 0z" fill-rule="evenodd"/><path fill="#000000" fill-opacity="0.0" d="m38.392445 158.31633l88.85039 92.566925" fill-rule="evenodd"/><path stroke="#b7b7b7" stroke-width="2.0" stroke-linejoin="round" stroke-linecap="butt" stroke-dasharray="8.0,6.0" d="m38.392445 158.31633l88.85039 92.566925" fill-rule="evenodd"/><path fill="#000000" fill-opacity="0.0" d="m24.04987 164.25722l103.2126 178.14174" fill-rule="evenodd"/><path stroke="#b7b7b7" stroke-width="2.0" stroke-linejoin="round" stroke-linecap="butt" d="m24.04987 164.25722l103.2126 178.14174" fill-rule="evenodd"/><path fill="#000000" fill-opacity="0.0" d="m38.392445 129.63118l82.92914 -31.401573" fill-rule="evenodd"/><path stroke="#b7b7b7" stroke-width="2.0" stroke-linejoin="round" stroke-linecap="butt" d="m38.392445 129.63118l82.92914 -31.401573" fill-rule="evenodd"/><path fill="#000000" fill-opacity="0.0" d="m38.392445 296.6338l88.85039 -92.56691" fill-rule="evenodd"/><path stroke="#b7b7b7" stroke-width="2.0" stroke-linejoin="round" stroke-linecap="butt" d="m38.392445 296.6338l88.85039 -92.56691" fill-rule="evenodd"/><path fill="#000000" fill-opacity="0.0" d="m38.392445 325.31894l82.92914 31.40158" fill-rule="evenodd"/><path stroke="#b7b7b7" stroke-width="2.0" stroke-linejoin="round" stroke-linecap="butt" d="m38.392445 325.31894l82.92914 31.40158" fill-rule="evenodd"/><path fill="#000000" fill-opacity="0.0" d="m44.333332 310.97638l82.92914 -31.40158" fill-rule="evenodd"/><path stroke="#b7b7b7" stroke-width="2.0" stroke-linejoin="round" stroke-linecap="butt" d="m44.333332 310.97638l82.92914 -31.40158" fill-rule="evenodd"/><path fill="#000000" fill-opacity="0.0" d="m44.333332 143.97375l82.92914 31.40158" fill-rule="evenodd"/><path stroke="#b7b7b7" stroke-width="2.0" stroke-linejoin="round" stroke-linecap="butt" d="m44.333332 143.97375l82.92914 31.40158" fill-rule="evenodd"/><path fill="#000000" fill-opacity="0.0" d="m161.88452 98.2231l82.92912 31.401566" fill-rule="evenodd"/><path stroke="#b7b7b7" stroke-width="2.0" stroke-linejoin="round" stroke-linecap="butt" d="m161.88452 98.2231l82.92912 31.401566" fill-rule="evenodd"/><path fill="#000000" fill-opacity="0.0" d="m244.80704 158.31633l-88.8504 92.566925" fill-rule="evenodd"/><path stroke="#b7b7b7" stroke-width="2.0" stroke-linejoin="round" stroke-linecap="butt" stroke-dasharray="8.0,6.0" d="m244.80704 158.31633l-88.8504 92.566925" fill-rule="evenodd"/><path fill="#000000" fill-opacity="0.0" d="m238.86613 143.97375l-82.92912 31.40158" fill-rule="evenodd"/><path stroke="#b7b7b7" stroke-width="2.0" stroke-linejoin="round" stroke-linecap="butt" d="m238.86613 143.97375l-82.92912 31.40158" fill-rule="evenodd"/><path fill="#000000" fill-opacity="0.0" d="m259.1496 164.25722l-103.212585 178.14174" fill-rule="evenodd"/><path stroke="#b7b7b7" stroke-width="2.0" stroke-linejoin="round" stroke-linecap="butt" d="m259.1496 164.25722l-103.212585 178.14174" fill-rule="evenodd"/><path fill="#000000" fill-opacity="0.0" d="m244.80704 296.6338l-88.8504 -92.56691" fill-rule="evenodd"/><path stroke="#b7b7b7" stroke-width="2.0" stroke-linejoin="round" stroke-linecap="butt" d="m244.80704 296.6338l-88.8504 -92.56691" fill-rule="evenodd"/><path fill="#000000" fill-opacity="0.0" d="m238.86613 310.97638l-82.92912 -31.40158" fill-rule="evenodd"/><path stroke="#b7b7b7" stroke-width="2.0" stroke-linejoin="round" stroke-linecap="butt" d="m238.86613 310.97638l-82.92912 -31.40158" fill-rule="evenodd"/><path fill="#000000" fill-opacity="0.0" d="m244.80704 325.31894l-82.92914 31.40158" fill-rule="evenodd"/><path stroke="#b7b7b7" stroke-width="2.0" stroke-linejoin="round" stroke-linecap="butt" d="m244.80704 325.31894l-82.92914 31.40158" fill-rule="evenodd"/><path fill="#ffffff" d="m121.31759 189.72441l0 0c0 -11.202255 9.081215 -20.283463 20.283455 -20.283463l0 0c5.3795166 0 10.538696 2.1369934 14.342575 5.9408875c3.803894 3.8038788 5.9409027 8.963058 5.9409027 14.342575l0 0c0 11.20224 -9.081223 20.283463 -20.283478 20.283463l0 0c-11.20224 0 -20.283455 -9.081223 -20.283455 -20.283463z" fill-rule="evenodd"/><path stroke="#b7b7b7" stroke-width="4.0" stroke-linejoin="round" stroke-linecap="butt" d="m121.31759 189.72441l0 0c0 -11.202255 9.081215 -20.283463 20.283455 -20.283463l0 0c5.3795166 0 10.538696 2.1369934 14.342575 5.9408875c3.803894 3.8038788 5.9409027 8.963058 5.9409027 14.342575l0 0c0 11.20224 -9.081223 20.283463 -20.283478 20.283463l0 0c-11.20224 0 -20.283455 -9.081223 -20.283455 -20.283463z" fill-rule="evenodd"/><path fill="#ffffff" d="m121.31759 98.2231l0 0c0 -11.202248 9.081215 -20.283463 20.283455 -20.283463l0 0c5.3795166 0 10.538696 2.137001 14.342575 5.9408875c3.803894 3.8038864 5.9409027 8.963066 5.9409027 14.342575l0 0c0 11.202248 -9.081223 20.283463 -20.283478 20.283463l0 0c-11.20224 0 -20.283455 -9.081215 -20.283455 -20.283463z" fill-rule="evenodd"/><path stroke="#b7b7b7" stroke-width="4.0" stroke-linejoin="round" stroke-linecap="butt" d="m121.31759 98.2231l0 0c0 -11.202248 9.081215 -20.283463 20.283455 -20.283463l0 0c5.3795166 0 10.538696 2.137001 14.342575 5.9408875c3.803894 3.8038864 5.9409027 8.963066 5.9409027 14.342575l0 0c0 11.202248 -9.081223 20.283463 -20.283478 20.283463l0 0c-11.20224 0 -20.283455 -9.081215 -20.283455 -20.283463z" fill-rule="evenodd"/><path fill="#ffffff" d="m121.31759 356.72702l0 0c0 -11.20224 9.081215 -20.283447 20.283455 -20.283447l0 0c5.3795166 0 10.538696 2.1369934 14.342575 5.9408875c3.803894 3.803894 5.9409027 8.963074 5.9409027 14.34256l0 0c0 11.2022705 -9.081223 20.283478 -20.283478 20.283478l0 0c-11.20224 0 -20.283455 -9.081207 -20.283455 -20.283478z" fill-rule="evenodd"/><path stroke="#b7b7b7" stroke-width="4.0" stroke-linejoin="round" stroke-linecap="butt" d="m121.31759 356.72702l0 0c0 -11.20224 9.081215 -20.283447 20.283455 -20.283447l0 0c5.3795166 0 10.538696 2.1369934 14.342575 5.9408875c3.803894 3.803894 5.9409027 8.963074 5.9409027 14.34256l0 0c0 11.2022705 -9.081223 20.283478 -20.283478 20.283478l0 0c-11.20224 0 -20.283455 -9.081207 -20.283455 -20.283478z" fill-rule="evenodd"/><path fill="#000000" fill-opacity="0.0" d="m127.25848 112.565674l-66.14174 116.06299" fill-rule="evenodd"/><path stroke="#b7b7b7" stroke-width="2.0" stroke-linejoin="round" stroke-linecap="butt" stroke-dasharray="8.0,6.0" d="m127.25848 112.565674l-66.14174 116.06299" fill-rule="evenodd"/><path fill="#000000" fill-opacity="0.0" d="m61.089237 227.85826l-37.039368 62.83464" fill-rule="evenodd"/><path stroke="#b7b7b7" stroke-width="2.0" stroke-linejoin="round" stroke-linecap="butt" d="m61.089237 227.85826l-37.039368 62.83464" fill-rule="evenodd"/><path fill="#000000" fill-opacity="0.0" d="m155.94362 112.565674l68.25197 116.85039" fill-rule="evenodd"/><path stroke="#b7b7b7" stroke-width="2.0" stroke-linejoin="round" stroke-linecap="butt" stroke-dasharray="8.0,6.0" d="m155.94362 112.565674l68.25197 116.85039" fill-rule="evenodd"/><path fill="#000000" fill-opacity="0.0" d="m259.1496 290.6929l-35.716522 -62.83464" fill-rule="evenodd"/><path stroke="#b7b7b7" stroke-width="2.0" stroke-linejoin="round" stroke-linecap="butt" d="m259.1496 290.6929l-35.716522 -62.83464" fill-rule="evenodd"/><path fill="#ffffff" d="m3.7664042 143.97375l0 0c0 -11.202255 9.081217 -20.283463 20.283466 -20.283463l0 0c5.379509 0 10.538689 2.137001 14.342575 5.9408875c3.8038864 3.8038788 5.9408875 8.963058 5.9408875 14.342575l0 0c0 11.20224 -9.081215 20.283463 -20.283463 20.283463l0 0c-11.202249 0 -20.283466 -9.081223 -20.283466 -20.283463z" fill-rule="evenodd"/><path stroke="#326ce5" stroke-width="4.0" stroke-linejoin="round" stroke-linecap="butt" d="m3.7664042 143.97375l0 0c0 -11.202255 9.081217 -20.283463 20.283466 -20.283463l0 0c5.379509 0 10.538689 2.137001 14.342575 5.9408875c3.8038864 3.8038788 5.9408875 8.963058 5.9408875 14.342575l0 0c0 11.20224 -9.081215 20.283463 -20.283463 20.283463l0 0c-11.202249 0 -20.283466 -9.081223 -20.283466 -20.283463z" fill-rule="evenodd"/><path fill="#ffffff" d="m121.31759 265.2257l0 0c0 -11.20224 9.081215 -20.283447 20.283455 -20.283447l0 0c5.3795166 0 10.538696 2.1369934 14.342575 5.9408875c3.803894 3.8038788 5.9409027 8.963074 5.9409027 14.34256l0 0c0 11.2022705 -9.081223 20.283478 -20.283478 20.283478l0 0c-11.20224 0 -20.283455 -9.081207 -20.283455 -20.283478z" fill-rule="evenodd"/><path stroke="#326ce5" stroke-width="4.0" stroke-linejoin="round" stroke-linecap="butt" d="m121.31759 265.2257l0 0c0 -11.20224 9.081215 -20.283447 20.283455 -20.283447l0 0c5.3795166 0 10.538696 2.1369934 14.342575 5.9408875c3.803894 3.8038788 5.9409027 8.963074 5.9409027 14.34256l0 0c0 11.2022705 -9.081223 20.283478 -20.283478 20.283478l0 0c-11.20224 0 -20.283455 -9.081207 -20.283455 -20.283478z" fill-rule="evenodd"/><path fill="#ffffff" d="m238.86613 310.97638l0 0c0 -11.20224 9.081223 -20.283478 20.283463 -20.283478l0 0c5.3795166 0 10.538696 2.137024 14.34259 5.9408875c3.803894 3.803894 5.9408875 8.963074 5.9408875 14.34259l0 0c0 11.20224 -9.081207 20.283478 -20.283478 20.283478l0 0c-11.20224 0 -20.283463 -9.081238 -20.283463 -20.283478z" fill-rule="evenodd"/><path stroke="#326ce5" stroke-width="4.0" stroke-linejoin="round" stroke-linecap="butt" d="m238.86613 310.97638l0 0c0 -11.20224 9.081223 -20.283478 20.283463 -20.283478l0 0c5.3795166 0 10.538696 2.137024 14.34259 5.9408875c3.803894 3.803894 5.9408875 8.963074 5.9408875 14.34259l0 0c0 11.20224 -9.081207 20.283478 -20.283478 20.283478l0 0c-11.20224 0 -20.283463 -9.081238 -20.283463 -20.283478z" fill-rule="evenodd"/><path fill="#ffffff" d="m3.7664042 310.97638l0 0c0 -11.20224 9.081217 -20.283478 20.283466 -20.283478l0 0c5.379509 0 10.538689 2.137024 14.342575 5.9408875c3.8038864 3.803894 5.9408875 8.963074 5.9408875 14.34259l0 0c0 11.20224 -9.081215 20.283478 -20.283463 20.283478l0 0c-11.202249 0 -20.283466 -9.081238 -20.283466 -20.283478z" fill-rule="evenodd"/><path stroke="#326ce5" stroke-width="4.0" stroke-linejoin="round" stroke-linecap="butt" d="m3.7664042 310.97638l0 0c0 -11.20224 9.081217 -20.283478 20.283466 -20.283478l0 0c5.379509 0 10.538689 2.137024 14.342575 5.9408875c3.8038864 3.803894 5.9408875 8.963074 5.9408875 14.34259l0 0c0 11.20224 -9.081215 20.283478 -20.283463 20.283478l0 0c-11.202249 0 -20.283466 -9.081238 -20.283466 -20.283478z" fill-rule="evenodd"/><path fill="#ffffff" d="m238.86613 143.97375l0 0c0 -11.202255 9.081223 -20.283463 20.283463 -20.283463l0 0c5.3795166 0 10.538696 2.137001 14.34259 5.9408875c3.803894 3.8038788 5.9408875 8.963058 5.9408875 14.342575l0 0c0 11.20224 -9.081207 20.283463 -20.283478 20.283463l0 0c-11.20224 0 -20.283463 -9.081223 -20.283463 -20.283463z" fill-rule="evenodd"/><path stroke="#326ce5" stroke-width="4.0" stroke-linejoin="round" stroke-linecap="butt" d="m238.86613 143.97375l0 0c0 -11.202255 9.081223 -20.283463 20.283463 -20.283463l0 0c5.3795166 0 10.538696 2.137001 14.34259 5.9408875c3.803894 3.8038788 5.9408875 8.963058 5.9408875 14.342575l0 0c0 11.20224 -9.081207 20.283463 -20.283478 20.283463l0 0c-11.20224 0 -20.283463 -9.081223 -20.283463 -20.283463z" fill-rule="evenodd"/><path fill="#000000" fill-opacity="0.0" d="m307.70078 118.4042l689.7638 0l0 213.32281l-689.7638 0z" fill-rule="evenodd"/><path fill="#000000" d="m338.93515 281.00418q-2.546875 0 -4.390625 -1.84375q-1.84375 -1.84375 -1.84375 -4.390625l0 -112.48436q0 -2.71875 1.84375 -4.46875q1.84375 -1.765625 4.390625 -1.765625q3.84375 0 5.609375 3.1875l53.921875 107.20311l-5.453125 0l52.96875 -107.20311q1.921875 -3.1875 5.59375 -3.1875q2.5625 0 4.3125 1.765625q1.765625 1.75 1.765625 4.46875l0 112.48436q0 2.546875 -1.765625 4.390625q-1.75 1.84375 -4.3125 1.84375q-2.71875 0 -4.5625 -1.84375q-1.828125 -1.84375 -1.828125 -4.390625l0 -96.32811l2.71875 0.15625l-47.203125 96.48436q-1.765625 3.046875 -5.4375 3.046875q-4.0 0 -5.765625 -3.84375l-47.515625 -95.04686l3.203125 -0.796875l0 96.32811q0 2.546875 -1.84375 4.390625q-1.84375 1.84375 -4.40625 1.84375zm208.49136 1.59375q-13.921875 0 -25.609375 -4.796875q-11.6719055 -4.796875 -20.234406 -13.4375q-8.5625 -8.64061 -13.28125 -20.312485q-4.71875 -11.6875 -4.71875 -25.609375q0 -13.75 4.71875 -25.4375q4.71875 -11.6875 13.28125 -20.3125q8.5625 -8.640625 20.234406 -13.4375q11.6875 -4.8125 25.609375 -4.8125q13.75 0 25.421875 4.8125q11.6875 4.796875 20.328125 13.4375q8.640625 8.625 13.359375 20.3125q4.71875 11.6875 4.71875 25.4375q0 13.921875 -4.71875 25.609375q-4.71875 11.671875 -13.359375 20.312485q-8.640625 8.640625 -20.328125 13.4375q-11.671875 4.796875 -25.421875 4.796875zm0 -11.828125q11.03125 0 20.46875 -3.921875q9.453125 -3.921875 16.40625 -11.031235q6.953125 -7.125 10.796875 -16.640625q3.84375 -9.53125 3.84375 -20.734375q0 -11.03125 -3.84375 -20.546875q-3.84375 -9.53125 -10.796875 -16.640625q-6.953125 -7.125 -16.40625 -11.046875q-9.4375 -3.921875 -20.46875 -3.921875q-11.203125 0 -20.640625 3.921875q-9.4375 3.921875 -16.40628 11.046875q-6.953125 7.109375 -10.796875 16.640625q-3.84375 9.515625 -3.84375 20.546875q0 11.203125 3.84375 20.734375q3.84375 9.515625 10.796875 16.640625q6.9687805 7.1093597 16.40628 11.031235q9.4375 3.921875 20.640625 3.921875zm128.00067 11.828125q-10.25 0 -18.96875 -2.953125q-8.71875 -2.953125 -15.125 -8.390625q-6.390625 -5.453125 -9.75 -12.65625q-1.28125 -2.546875 -0.078125 -4.7031097q1.203125 -2.171875 4.078125 -2.96875q2.234375 -0.640625 4.390625 0.484375q2.171875 1.109375 3.28125 3.359375q2.40625 4.6406097 7.046875 8.32811q4.640625 3.671875 11.03125 5.671875q6.40625 2.0 14.09375 2.0q8.46875 0 15.03125 -2.796875q6.5625 -2.8125 10.3125 -8.171875q3.765625 -5.3593597 3.765625 -13.031235q0 -9.765625 -7.203125 -16.796875q-7.1875 -7.046875 -22.546875 -8.96875q-18.71875 -2.234375 -29.28125 -11.59375q-10.5625 -9.359375 -10.5625 -22.96875q0 -9.75 5.1875 -16.953125q5.203125 -7.203125 14.328125 -11.125q9.125 -3.921875 20.96875 -3.921875q8.796875 0 15.984375 2.8125q7.203125 2.796875 12.5625 7.359375q5.359375 4.546875 8.734375 9.984375q1.59375 2.5625 1.03125 4.96875q-0.5625 2.390625 -2.796875 3.671875q-2.40625 1.125 -4.890625 0.328125q-2.46875 -0.796875 -3.75 -3.046875q-2.40625 -3.671875 -6.0 -6.953125q-3.59375 -3.28125 -8.71875 -5.203125q-5.125 -1.921875 -12.328125 -2.078125q-12.640625 0 -20.328125 5.359375q-7.671875 5.359375 -7.671875 15.59375q0 5.453125 2.875 10.015625q2.890625 4.546875 9.53125 7.828125q6.640625 3.28125 17.84375 4.875q20.0 2.890625 29.671875 12.25q9.6875 9.359375 9.6875 24.390625q0 8.640625 -3.125 15.374985q-3.125 6.71875 -8.8125 11.28125q-5.671875 4.546875 -13.265625 6.953125q-7.59375 2.390625 -16.234375 2.390625zm73.74823 -1.59375q-2.71875 0 -4.484375 -1.75q-1.75 -1.765625 -1.75 -4.484375l0 -112.48436q0 -2.71875 1.75 -4.46875q1.765625 -1.765625 4.484375 -1.765625l75.046875 0q2.5625 0 4.390625 1.6875q1.84375 1.671875 1.84375 4.390625q0 2.390625 -1.84375 4.15625q-1.828125 1.765625 -4.390625 1.765625l-68.796875 0l0 44.15625l50.078125 0q2.71875 0 4.46875 1.765625q1.765625 1.75 1.765625 4.3125q0 2.5625 -1.765625 4.328125q-1.75 1.75 -4.46875 1.75l-50.078125 0l0 44.64061l68.796875 0q2.5625 0 4.390625 1.765625q1.84375 1.75 1.84375 4.15625q0 2.71875 -1.84375 4.40625q-1.828125 1.671875 -4.390625 1.671875l-75.046875 0zm160.64197 1.59375q-12.953125 0 -24.234375 -4.953125q-11.28125 -4.953125 -19.84375 -13.828125q-8.5625 -8.89061 -13.359375 -20.48436q-4.796875 -11.609375 -4.796875 -24.890625q0 -13.125 4.71875 -24.71875q4.71875 -11.59375 13.28125 -20.390625q8.5625 -8.8125 19.84375 -13.84375q11.28125 -5.046875 24.390625 -5.046875q11.53125 0 20.96875 3.359375q9.4375 3.359375 18.234375 10.71875q1.4375 1.125 1.671875 2.65625q0.25 1.515625 -0.390625 2.875q-0.640625 1.359375 -1.921875 2.0q-0.3125 1.265625 -1.59375 1.90625q-1.28125 0.640625 -2.96875 0.484375q-1.671875 -0.15625 -3.28125 -1.4375q-6.234375 -5.4375 -13.59375 -8.078125q-7.359375 -2.640625 -17.125 -2.640625q-10.390625 0 -19.4375 4.15625q-9.03125 4.15625 -15.921875 11.359375q-6.875 7.203125 -10.796875 16.640625q-3.921875 9.4375 -3.921875 20.0q0 10.875 3.921875 20.328125q3.921875 9.4375 10.796875 16.640625q6.890625 7.1874847 15.921875 11.281235q9.046875 4.078125 19.4375 4.078125q8.796875 0 16.640625 -2.875q7.84375 -2.890625 14.890625 -8.328125q1.90625 -1.609375 4.0625 -1.28125q2.171875 0.3125 3.765625 1.921875q1.609375 1.59375 1.609375 4.15625q0 1.28125 -0.40625 2.328125q-0.40625 1.03125 -1.359375 2.15625q-8.15625 7.515625 -18.234375 10.640625q-10.078125 3.109375 -20.96875 3.109375z" fill-rule="nonzero"/></g></svg>
